# xmcd
#
# Track frame offsets:
#	150
#	18853
#	41856
#	54394
#	70963
#	96380
#	113157
#	120236
#	153700
#	176699
#
# Disc length: 2522 seconds
#
# Revision: 1
# Processed by: cddbd v1.5.2PL0 Copyright (c) Steve Scherf et al.
# Submitted via: audiograbber 1.83.01
#
DISCID=8309d80a
DTITLE=Layla Zoe - Firegirl
DYEAR=2008
DGENRE=Blues and Boogie
TTITLE0=Long black glove
TTITLE1=The hermit
TTITLE2=I´ve been down
TTITLE3=Lay your hands on me
TTITLE4=Desperation
TTITLE5=Miner´s hole
TTITLE6=I hope she loves you like I do
TTITLE7=Birthday song
TTITLE8=Crazy man eyes
TTITLE9=That would be so sweet
EXTD=Layla Zoe is a canadian blues singer!
EXTT0=
EXTT1=
EXTT2=
EXTT3=
EXTT4=
EXTT5=
EXTT6=
EXTT7=
EXTT8=
EXTT9=
PLAYORDER=
